# xmcd
#
# Track frame offsets:
#	150
#	13883
#	30408
#	45791
#	60634
#	74385
#	88564
#	103266
#	122232
#	135557
#	150081
#	164624
#	177744
#	194457
#
# Disc length: 2839 seconds
#
# Revision: 2
# Processed by: cddbd v1.5.2PL0 Copyright (c) Steve Scherf et al.
# Submitted via: audiograbber 1.83.01
#
DISCID=b90b150e
DTITLE=Weekend - Keiner ist gestorben
DYEAR=2017
DGENRE=Deutsch Hip-Hop - Rap
TTITLE0=Weekend - Ausschlussprinzip
TTITLE1=Weekend - Keiner ist gestorben
TTITLE2=Weekend - Sofa King
TTITLE3=Weekend - Lass uns Feinde sein
TTITLE4=Weekend - Superheld ist ein scheiss Job
TTITLE5=Weekend mit Sorgenkind - Köpfe
TTITLE6=Weekend - Life Is A Bitch II
TTITLE7=Weekend mit 3Plusss and Fatoni - Wie ein Opfer
TTITLE8=Weekend - Ich will dass irgendwas kaputt geht
TTITLE9=Weekend - Geld
TTITLE10=Weekend mit Edgar Wasser - Kinder machen
TTITLE11=Weekend - Fanpost von Gott
TTITLE12=Weekend - Bottom
TTITLE13=Weekend - Die Rede für den Preis den ich nie kriegen werde
EXTD=Release-Date: 13.10.2017\n\nMARO\n
EXTT0=
EXTT1=
EXTT2=
EXTT3=
EXTT4=
EXTT5=
EXTT6=
EXTT7=
EXTT8=
EXTT9=
EXTT10=
EXTT11=
EXTT12=
EXTT13=
PLAYORDER=
